<svg width="55" height="45" viewBox="0 0 55 45" fill="none" xmlns="http://www.w3.org/2000/svg">
<path d="M9.78358 28.016C10.8929 29.0907 12.1236 29.9053 13.4756 30.46C14.8276 31.0147 16.2316 31.4133 17.6876 31.656C19.1436 31.864 20.6342 31.9853 22.1596 32.02C23.6849 32.02 25.1582 32.02 26.5796 32.02C27.0996 32.02 27.7929 32.0027 28.6596 31.968C29.5609 31.9333 30.5142 31.864 31.5196 31.76C32.5596 31.6213 33.5996 31.448 34.6396 31.24C35.6796 30.9973 36.6156 30.6853 37.4476 30.304C38.3142 29.9227 39.0076 29.472 39.5276 28.952C40.0822 28.3973 40.3596 27.7387 40.3596 26.976C40.3596 26.2133 40.0649 25.5547 39.4756 25C38.9209 24.4107 38.1929 23.908 37.2916 23.492C36.3902 23.076 35.3676 22.7293 34.2236 22.452C33.1142 22.14 32.0049 21.9147 30.8956 21.776C29.7862 21.6027 28.7462 21.4813 27.7756 21.412C26.8396 21.3427 26.0769 21.308 25.4876 21.308H25.5396C24.7076 21.2733 23.6849 21.1867 22.4716 21.048C21.2582 20.9093 19.9929 20.7013 18.6756 20.424C17.3582 20.1467 16.0409 19.8 14.7236 19.384C13.4062 18.9333 12.2276 18.396 11.1876 17.772C10.1476 17.148 9.29825 16.42 8.63958 15.588C7.98091 14.7213 7.65158 13.7333 7.65158 12.624C7.65158 11.4107 7.96358 10.3707 8.58758 9.504C9.24625 8.63733 10.0782 7.90933 11.0836 7.32C12.1236 6.696 13.2849 6.21066 14.5676 5.864C15.8502 5.48267 17.1502 5.188 18.4676 4.98C19.7849 4.772 21.0329 4.63333 22.2116 4.564C23.4249 4.49467 24.4476 4.46 25.2796 4.46C26.6316 4.46 28.0009 4.52933 29.3876 4.668C30.8089 4.772 32.1956 4.98 33.5476 5.292C34.8996 5.604 36.2169 6.03733 37.4996 6.592C38.7822 7.112 39.9609 7.788 41.0356 8.62L38.2796 10.596C37.2742 9.90266 36.2169 9.36533 35.1076 8.984C33.9982 8.568 32.8542 8.256 31.6756 8.048C30.4969 7.84 29.3009 7.71867 28.0876 7.684C26.8742 7.61467 25.6956 7.58 24.5516 7.58C23.7542 7.58 22.6622 7.632 21.2756 7.736C19.9236 7.84 18.5716 8.06533 17.2196 8.412C15.9022 8.724 14.7582 9.22667 13.7876 9.92C12.8169 10.5787 12.3316 11.48 12.3316 12.624C12.3316 13.7333 12.7996 14.6347 13.7356 15.328C14.6716 15.9867 15.9022 16.524 17.4276 16.94C18.9529 17.3213 20.6862 17.6333 22.6276 17.876C24.6036 18.084 26.6142 18.3093 28.6596 18.552C30.7049 18.7947 32.6982 19.0893 34.6396 19.436C36.6156 19.748 38.3662 20.216 39.8916 20.84C41.4169 21.4293 42.6476 22.2267 43.5836 23.232C44.5196 24.2027 44.9876 25.4507 44.9876 26.976C44.9876 28.0507 44.6582 29.004 43.9996 29.836C43.3756 30.668 42.5436 31.396 41.5036 32.02C40.4636 32.6093 39.2849 33.112 37.9676 33.528C36.6849 33.9093 35.3849 34.2213 34.0676 34.464C32.7849 34.7067 31.5542 34.88 30.3756 34.984C29.1969 35.088 28.2262 35.14 27.4636 35.14H23.5636C22.1422 35.14 20.6516 35.088 19.0916 34.984C17.5316 34.88 16.0062 34.6547 14.5156 34.308C13.0249 33.9267 11.6036 33.4067 10.2516 32.748C8.89958 32.0893 7.70358 31.188 6.66358 30.044L9.78358 28.016ZM2.34758 28.952C3.73425 31.2053 5.38091 32.956 7.28758 34.204C9.19425 35.4173 11.2569 36.3187 13.4756 36.908C15.6942 37.4627 17.9822 37.792 20.3396 37.896C22.7316 38 25.1062 38.052 27.4636 38.052C28.5036 38.052 29.7342 37.9827 31.1556 37.844C32.5769 37.6707 34.0502 37.4107 35.5756 37.064C37.1009 36.7173 38.5916 36.2667 40.0476 35.712C41.5382 35.1227 42.8556 34.4293 43.9996 33.632C45.1782 32.8 46.1142 31.8467 46.8076 30.772C47.5356 29.6627 47.8996 28.3973 47.8996 26.976C47.8996 25.2773 47.5182 23.8387 46.7556 22.66C46.0276 21.4467 45.0569 20.4413 43.8436 19.644C42.6649 18.812 41.2956 18.1533 39.7356 17.668C38.2102 17.148 36.6329 16.7493 35.0036 16.472C33.3742 16.1947 31.7796 15.9867 30.2196 15.848C28.6596 15.7093 27.2729 15.588 26.0596 15.484C25.6436 15.4493 24.8462 15.38 23.6676 15.276C22.4889 15.1373 21.2756 14.964 20.0276 14.756C18.7796 14.5133 17.6702 14.2187 16.6996 13.872C15.7289 13.5253 15.2436 13.1093 15.2436 12.624C15.2436 12.0693 15.6942 11.6533 16.5956 11.376C17.4969 11.0987 18.5196 10.8907 19.6636 10.752C20.8422 10.6133 21.9689 10.544 23.0436 10.544C24.1529 10.5093 24.8982 10.492 25.2796 10.492C26.3889 10.492 27.5156 10.544 28.6596 10.648C29.8036 10.7173 30.9129 10.8907 31.9876 11.168C33.0969 11.4453 34.1369 11.844 35.1076 12.364C36.1129 12.884 37.0316 13.56 37.8636 14.392L45.4556 9.296C44.1382 7.49333 42.6476 6.08933 40.9836 5.084C39.3196 4.044 37.5516 3.264 35.6796 2.744C33.8076 2.224 31.8489 1.89467 29.8036 1.756C27.7929 1.61733 25.7649 1.548 23.7196 1.548C22.6449 1.548 21.4142 1.63466 20.0276 1.808C18.6756 1.94666 17.2889 2.18933 15.8676 2.536C14.4809 2.88266 13.1116 3.33333 11.7596 3.888C10.4422 4.44266 9.26358 5.136 8.22358 5.968C7.18358 6.8 6.35158 7.77067 5.72758 8.88C5.10358 9.95467 4.79158 11.2027 4.79158 12.624C4.79158 14.2533 5.19025 15.6573 5.98758 16.836C6.78491 18.0147 7.84224 19.02 9.15958 19.852C10.4769 20.684 11.9676 21.36 13.6316 21.88C15.2956 22.4 16.9769 22.8333 18.6756 23.18C20.4089 23.492 22.0729 23.752 23.6676 23.96C25.2969 24.1333 26.7182 24.2893 27.9316 24.428C28.2782 24.4627 28.9542 24.532 29.9596 24.636C30.9996 24.74 32.0742 24.896 33.1836 25.104C34.2929 25.2773 35.2809 25.52 36.1476 25.832C37.0142 26.144 37.4476 26.5253 37.4476 26.976C37.4476 27.3573 37.1702 27.6867 36.6156 27.964C36.0609 28.2067 35.3502 28.4147 34.4836 28.588C33.6169 28.7267 32.6636 28.8307 31.6236 28.9C30.5836 28.9693 29.5609 29.0213 28.5556 29.056C27.5849 29.0907 26.7009 29.108 25.9036 29.108C25.1409 29.108 24.6036 29.108 24.2916 29.108C22.9742 29.108 21.6742 29.056 20.3916 28.952C19.1089 28.8133 17.8609 28.5707 16.6476 28.224C15.4342 27.8427 14.2902 27.3227 13.2156 26.664C12.1409 26.0053 11.1702 25.1213 10.3036 24.012L2.34758 28.952ZM9.88758 22.712L7.39158 20.164C6.17825 19.2627 5.22491 18.2053 4.53158 16.992C3.83824 15.744 3.49158 14.288 3.49158 12.624C3.49158 11.0293 3.82091 9.62533 4.47958 8.412C5.17291 7.164 6.07424 6.08933 7.18358 5.188C8.29291 4.28667 9.55825 3.524 10.9796 2.9C12.4009 2.24133 13.8569 1.72133 15.3476 1.34C16.8382 0.958665 18.3116 0.681332 19.7676 0.507999C21.2236 0.334666 22.5409 0.247999 23.7196 0.247999C25.7649 0.247999 27.8276 0.317332 29.9076 0.455997C31.9876 0.559997 34.0156 0.871998 35.9916 1.392C38.0022 1.912 39.9262 2.70933 41.7636 3.784C43.6009 4.85866 45.3169 6.36666 46.9116 8.308C47.9862 9.38267 48.8356 10.284 49.4596 11.012C50.0836 11.7053 50.5689 12.2947 50.9156 12.78C51.2969 13.2653 51.5742 13.664 51.7476 13.976C51.9209 14.2533 52.0942 14.5133 52.2676 14.756L45.6116 19.228C45.7849 19.4013 45.9756 19.5573 46.1836 19.696C46.4262 19.8 46.7556 20.0253 47.1716 20.372C47.5876 20.7187 48.1249 21.2213 48.7836 21.88C49.4769 22.504 50.3956 23.4053 51.5396 24.584C52.3716 25.4507 53.0302 26.56 53.5156 27.912C54.0009 29.264 54.2436 30.6853 54.2436 32.176C54.2436 33.736 53.8622 35.1227 53.0996 36.336C52.3369 37.5493 51.3489 38.6067 50.1356 39.508C48.9222 40.4093 47.5356 41.172 45.9756 41.796C44.4156 42.42 42.8382 42.9227 41.2436 43.304C39.6489 43.6853 38.0889 43.9627 36.5636 44.136C35.0729 44.3093 33.7729 44.396 32.6636 44.396C30.6182 44.396 28.5382 44.396 26.4236 44.396C24.3089 44.396 22.2289 44.2227 20.1836 43.876C18.1729 43.5293 16.2142 42.9573 14.3076 42.16C12.4009 41.3627 10.6502 40.1493 9.05558 38.52C7.70358 37.272 6.55958 36.18 5.62358 35.244C4.72225 34.2733 3.94225 33.4067 3.28358 32.644C2.65958 31.8467 2.12224 31.1187 1.67158 30.46C1.25558 29.8013 0.856911 29.16 0.475578 28.536L9.88758 22.712Z" fill="#009688"/>
</svg>
